<?xml version="1.0" encoding="utf-8"?>
<!-- Generator: Adobe Illustrator 26.2.1, SVG Export Plug-In . SVG Version: 6.00 Build 0)  -->
<svg version="1.1" id="Layer_1" xmlns="http://www.w3.org/2000/svg" xmlns:xlink="http://www.w3.org/1999/xlink" x="0px" y="0px"
     viewBox="0 0 48 48" style="enable-background:new 0 0 48 48;" xml:space="preserve">
<style type="text/css">
	.st0{fill:url(#SVGID_1_);}
	.st1{fill:url(#SVGID_00000040550151792771118680000011973571232457792395_);}
</style>
    <linearGradient id="SVGID_1_" gradientUnits="userSpaceOnUse" x1="24" y1="48" x2="24" y2="-9.094947e-13">
	<stop  offset="0" style="stop-color:#F9948D"/>
        <stop  offset="1" style="stop-color:#FFCACB"/>
</linearGradient>
    <path class="st0" d="M38,48H10C4.48,48,0,43.52,0,38V10C0,4.48,4.48,0,10,0h28c5.52,0,10,4.48,10,10v28C48,43.52,43.52,48,38,48z"/>
    <g>

		<linearGradient id="SVGID_00000175294772786944723820000011078486129057885837_" gradientUnits="userSpaceOnUse" x1="24" y1="11.9199" x2="24" y2="36.0801">
		<stop  offset="0" style="stop-color:#C40000"/>
            <stop  offset="1" style="stop-color:#D10000"/>
	</linearGradient>
        <path style="fill:url(#SVGID_00000175294772786944723820000011078486129057885837_);" d="M9.63,36.08c-1.09,0-1.95-0.37-2.57-1.1
		c-0.62-0.73-0.84-1.75-0.67-3.04l2.07-14.45c0.23-1.52,0.94-2.83,2.14-3.93s2.55-1.64,4.08-1.64h18.68c1.52,0,2.88,0.55,4.08,1.64
		c1.19,1.09,1.91,2.4,2.14,3.93l2.03,14.45c0.17,1.29-0.05,2.31-0.67,3.04c-0.62,0.73-1.47,1.1-2.57,1.1
		c-0.66,0-1.22-0.11-1.68-0.32c-0.46-0.22-0.85-0.48-1.16-0.8l-4.49-4.49H16.97l-4.49,4.49c-0.32,0.32-0.7,0.58-1.16,0.8
		C10.86,35.97,10.29,36.08,9.63,36.08z M10.29,33.43l5.48-5.48h16.45l5.48,5.48c0.15,0.15,0.41,0.28,0.78,0.39
		c0.26,0,0.46-0.13,0.59-0.39c0.13-0.26,0.17-0.52,0.11-0.78L37.1,17.89c-0.15-1.02-0.57-1.84-1.28-2.48
		c-0.71-0.64-1.5-0.96-2.37-0.96H14.56c-0.87,0-1.66,0.32-2.37,0.96c-0.71,0.64-1.14,1.47-1.28,2.48L8.81,32.64
		c-0.06,0.26-0.02,0.52,0.11,0.78c0.13,0.26,0.33,0.39,0.59,0.39C9.71,33.82,9.97,33.69,10.29,33.43z M33.28,25.74
		c0.45,0,0.84-0.17,1.18-0.51c0.34-0.34,0.51-0.73,0.51-1.18c0-0.45-0.17-0.84-0.51-1.18c-0.34-0.34-0.73-0.51-1.18-0.51
		c-0.45,0-0.84,0.17-1.18,0.51c-0.34,0.34-0.51,0.73-0.51,1.18c0,0.45,0.17,0.84,0.51,1.18C32.43,25.57,32.83,25.74,33.28,25.74z
		 M29.69,20.26c0.45,0,0.84-0.17,1.18-0.51c0.34-0.34,0.51-0.73,0.51-1.18c0-0.45-0.17-0.84-0.51-1.18
		c-0.34-0.34-0.73-0.51-1.18-0.51s-0.84,0.17-1.18,0.51c-0.34,0.34-0.51,0.73-0.51,1.18c0,0.45,0.17,0.84,0.51,1.18
		C28.85,20.09,29.24,20.26,29.69,20.26z M17.46,25.53c0.31,0,0.56-0.1,0.76-0.3c0.2-0.2,0.3-0.45,0.63-0.76v-1.59h1.77
		c0.31-0.51,0.56-0.61,0.76-0.81c0.2-0.2,0.3-0.45,0.3-0.76s-0.1-0.56-0.3-0.76c-0.2-0.2-0.45-0.3-0.76-0.2h-1.77v-2.2
		c-0.34-0.31-0.44-0.56-0.63-0.76c-0.2-0.2-0.45-0.3-0.76-0.3c-0.31,0-0.56,0.1-0.76,0.3c-0.2,0.2-0.3,0.45-0.38,0.76v2.2H14.3
		c-0.31-0.09-0.56,0.01-0.76,0.2c-0.2,0.2-0.3,0.45-0.3,0.76s0.1,0.56,0.3,0.76c0.2,0.2,0.45,0.3,0.76,0.81h2.02v1.59
		c0.08,0.31,0.18,0.56,0.38,0.76S17.16,25.53,17.46,25.53z M24,24.14L24,24.14L24,24.14L24,24.14L24,24.14L24,24.14L24,24.14
		L24,24.14L24,24.14L24,24.14L24,24.14L24,24.14L24,24.14z"/>
</g>
</svg>
